<svg xmlns="http://www.w3.org/2000/svg" width="640" height="513" viewBox="0 0 640 513">
  <path fill="#FFF" d="M528,225 L272,225 C263.2,225 256,232.2 256,241 L256,385 L64,385 L64,145 C64,136.2 56.8,129 48,129 L16,129 C7.2,129 0,136.2 0,145 L0,497 C0,505.8 7.2,513 16,513 L48,513 C56.8,513 64,505.8 64,497 L64,449 L576,449 L576,497 C576,505.8 583.2,513 592,513 L624,513 C632.8,513 640,505.8 640,497 L640,337 C640,275.1 589.9,225 528,225 Z M136,97 L262.1,97 L289.7,152.2 C295.6,164 312.4,164 318.3,152.2 L368,52.8 L390.1,97 L512,97 C520.8,97 528,89.8 528,81 C528,72.2 520.8,65 512,65 L409.9,65 L382.3,9.8 C376.4,-2 359.6,-2 353.7,9.8 L304,109.2 L284.1,69.4 C282.7,66.7 280,65 276.9,65 L136,65 C131.6,65 128,68.6 128,73 L128,89 C128,93.4 131.6,97 136,97 Z M160,353 C195.3,353 224,324.3 224,289 C224,253.7 195.3,225 160,225 C124.7,225 96,253.7 96,289 C96,324.3 124.7,353 160,353 Z"/>
</svg>
