<svg xmlns="http://www.w3.org/2000/svg" width="46" height="46" viewBox="0 0 46 46">
  <path fill="#FFF" d="M20.71875,-5.9852696e-05 C20.167969,0.078125 19.78125,0.589844 19.859375,1.140625 C19.9375,1.691406 20.449219,2.078125 21,2 L22,2 L22,4.0625 C20.136719,4.160156 18.339844,4.496094 16.65625,5.09375 L16.28125,4.09375 L16.71875,3.90625 C17.1875,3.707031 17.433594,3.191406 17.289063,2.703125 C17.144531,2.214844 16.65625,1.910156 16.15625,2 C16.070313,2.019531 15.984375,2.050781 15.90625,2.09375 L13.1875,3.28125 C12.679688,3.503906 12.445313,4.101563 12.671875,4.609375 C12.894531,5.117188 13.492188,5.347656 14,5.125 L14.4375,4.9375 L14.8125,5.875 C13.167969,6.664063 11.65625,7.699219 10.3125,8.90625 L8.875,7.4375 L9.59375,6.71875 C9.90625,6.421875 9.996094,5.957031 9.8125,5.566406 C9.625,5.171875 9.210938,4.945313 8.78125,5 C8.558594,5.023438 8.347656,5.125 8.1875,5.28125 L5.28125,8.1875 C4.894531,8.585938 4.898438,9.222656 5.296875,9.609375 C5.695313,9.996094 6.332031,9.992188 6.71875,9.59375 L7.4375,8.875 L8.90625,10.3125 C7.699219,11.65625 6.664063,13.167969 5.875,14.8125 L4.9375,14.4375 L5.125,14 C5.285156,13.671875 5.257813,13.285156 5.050781,12.984375 C4.839844,12.6875 4.488281,12.523438 4.125,12.5625 C4.082031,12.570313 4.039063,12.582031 4,12.59375 C3.675781,12.660156 3.410156,12.882813 3.28125,13.1875 L2.09375,15.90625 C1.894531,16.238281 1.90625,16.652344 2.117188,16.972656 C2.332031,17.292969 2.710938,17.464844 3.09375,17.410156 C3.472656,17.355469 3.792969,17.085938 3.90625,16.71875 L4.09375,16.28125 L5.09375,16.65625 C4.496094,18.339844 4.160156,20.136719 4.0625,22 L2,22 L2,21 C2.011719,20.710938 1.894531,20.433594 1.6875,20.238281 C1.476563,20.039063 1.191406,19.941406 0.90625,19.96875 C0.863281,19.976563 0.820313,19.988281 0.78125,20 C0.316406,20.105469 -0.011719,20.523438 -0.000304133093,21 L-0.000304133093,25 C-0.003906,25.359375 0.183594,25.695313 0.496094,25.878906 C0.808594,26.058594 1.191406,26.058594 1.503906,25.878906 C1.816406,25.695313 2.003906,25.359375 2,25 L2,24 L4.0625,24 C4.160156,25.863281 4.496094,27.660156 5.09375,29.34375 L4.09375,29.71875 L3.90625,29.28125 C3.730469,28.878906 3.3125,28.636719 2.875,28.6875 C2.558594,28.726563 2.285156,28.917969 2.128906,29.195313 C1.976563,29.472656 1.960938,29.804688 2.09375,30.09375 L3.28125,32.8125 C3.503906,33.320313 4.101563,33.554688 4.609375,33.328125 C5.117188,33.105469 5.347656,32.507813 5.125,32 L4.9375,31.5625 L5.875,31.1875 C6.664063,32.828125 7.671875,34.347656 8.875,35.6875 L7.4375,37.125 L6.71875,36.40625 C6.503906,36.175781 6.191406,36.058594 5.875,36.09375 C5.484375,36.132813 5.152344,36.394531 5.027344,36.761719 C4.898438,37.132813 5,37.542969 5.28125,37.8125 L8.1875,40.71875 C8.585938,41.105469 9.222656,41.101563 9.609375,40.703125 C9.996094,40.304688 9.992188,39.667969 9.59375,39.28125 L8.875,38.5625 L10.3125,37.125 C11.652344,38.328125 13.171875,39.335938 14.8125,40.125 L14.4375,41.0625 L14,40.875 C13.855469,40.804688 13.691406,40.773438 13.53125,40.78125 C13.046875,40.785156 12.636719,41.132813 12.550781,41.605469 C12.46875,42.082031 12.734375,42.550781 13.1875,42.71875 L15.90625,43.90625 C16.238281,44.105469 16.652344,44.09375 16.972656,43.882813 C17.292969,43.667969 17.464844,43.289063 17.410156,42.90625 C17.355469,42.527344 17.085938,42.207031 16.71875,42.09375 L16.28125,41.90625 L16.65625,40.90625 C18.339844,41.503906 20.136719,41.839844 22,41.9375 L22,44 L21,44 C20.96875,44 20.9375,44 20.90625,44 C20.875,44 20.84375,44 20.8125,44 C20.261719,44.050781 19.855469,44.542969 19.90625,45.09375 C19.957031,45.644531 20.449219,46.050781 21,46 L25,46 C25.359375,46.0042869 25.695313,45.816406 25.878906,45.503906 C26.058594,45.191406 26.058594,44.808594 25.878906,44.496094 C25.695313,44.183594 25.359375,43.996094 25,44 L24,44 L24,41.9375 C25.863281,41.839844 27.660156,41.503906 29.34375,40.90625 L29.71875,41.90625 L29.28125,42.09375 C28.914063,42.207031 28.644531,42.527344 28.589844,42.90625 C28.535156,43.289063 28.707031,43.667969 29.027344,43.882813 C29.347656,44.09375 29.761719,44.105469 30.09375,43.90625 L32.8125,42.71875 C33.304688,42.554688 33.59375,42.039063 33.46875,41.535156 C33.347656,41.027344 32.859375,40.699219 32.34375,40.78125 C32.222656,40.792969 32.109375,40.824219 32,40.875 L31.5625,41.0625 L31.1875,40.125 C32.832031,39.335938 34.34375,38.300781 35.6875,37.09375 L37.125,38.5625 L36.40625,39.28125 C36.007813,39.667969 36.003906,40.304688 36.390625,40.703125 C36.777344,41.101563 37.414063,41.105469 37.8125,40.71875 L40.71875,37.8125 C41.042969,37.511719 41.128906,37.035156 40.933594,36.640625 C40.742188,36.242188 40.308594,36.023438 39.875,36.09375 C39.648438,36.125 39.4375,36.238281 39.28125,36.40625 L38.5625,37.125 L37.09375,35.6875 C38.300781,34.34375 39.335938,32.832031 40.125,31.1875 L41.0625,31.5625 L40.875,32 C40.652344,32.507813 40.882813,33.105469 41.390625,33.328125 C41.898438,33.554688 42.496094,33.320313 42.71875,32.8125 L43.90625,30.09375 C44.050781,29.769531 44.015625,29.394531 43.808594,29.105469 C43.601563,28.816406 43.261719,28.65625 42.90625,28.6875 C42.875,28.6875 42.84375,28.6875 42.8125,28.6875 C42.488281,28.753906 42.222656,28.976563 42.09375,29.28125 L41.90625,29.71875 L40.90625,29.34375 C41.503906,27.660156 41.839844,25.863281 41.9375,24 L44,24 L44,25 C43.996094,25.359375 44.183594,25.695313 44.496094,25.878906 C44.808594,26.058594 45.191406,26.058594 45.503906,25.878906 C45.816406,25.695313 46.003906,25.359375 46,25 L46,21 C46.011719,20.710938 45.894531,20.433594 45.6875,20.238281 C45.476563,20.039063 45.191406,19.941406 44.90625,19.96875 C44.863281,19.976563 44.820313,19.988281 44.78125,20 C44.316406,20.105469 43.988281,20.523438 44,21 L44,22 L41.9375,22 C41.839844,20.136719 41.503906,18.339844 40.90625,16.65625 L41.90625,16.28125 L42.09375,16.71875 C42.207031,17.085938 42.527344,17.355469 42.90625,17.410156 C43.289063,17.464844 43.667969,17.292969 43.882813,16.972656 C44.09375,16.652344 44.105469,16.238281 43.90625,15.90625 L42.71875,13.1875 C42.539063,12.773438 42.105469,12.527344 41.65625,12.59375 C41.339844,12.632813 41.066406,12.824219 40.910156,13.101563 C40.757813,13.378906 40.742188,13.710938 40.875,14 L41.0625,14.4375 L40.125,14.8125 C39.335938,13.171875 38.328125,11.652344 37.125,10.3125 L38.5625,8.875 L39.28125,9.59375 C39.667969,9.992188 40.304688,9.996094 40.703125,9.609375 C41.101563,9.222656 41.105469,8.585938 40.71875,8.1875 L37.8125,5.28125 C37.625,5.082031 37.367188,4.972656 37.09375,4.96875 C37.03125,4.972656 36.96875,4.984375 36.90625,5 C36.53125,5.066406 36.230469,5.339844 36.125,5.703125 C36.019531,6.070313 36.128906,6.460938 36.40625,6.71875 L37.125,7.4375 L35.6875,8.875 C34.347656,7.671875 32.828125,6.664063 31.1875,5.875 L31.5625,4.9375 L32,5.125 C32.507813,5.347656 33.105469,5.117188 33.328125,4.609375 C33.554688,4.101563 33.320313,3.503906 32.8125,3.28125 L30.09375,2.09375 C29.917969,2.007813 29.722656,1.976563 29.53125,2 C29.089844,2.066406 28.746094,2.417969 28.6875,2.859375 C28.628906,3.300781 28.871094,3.726563 29.28125,3.90625 L29.71875,4.09375 L29.34375,5.09375 C27.660156,4.496094 25.863281,4.160156 24,4.0625 L24,2 L25,2 C25.359375,2.003906 25.695313,1.816406 25.878906,1.503906 C26.058594,1.191406 26.058594,0.808594 25.878906,0.496094 C25.695313,0.183594 25.359375,-0.003906 25,-5.9852696e-05 L21,-5.9852696e-05 C20.96875,-5.9852696e-05 20.9375,-5.9852696e-05 20.90625,-5.9852696e-05 C20.875,-5.9852696e-05 20.84375,-5.9852696e-05 20.8125,-5.9852696e-05 C20.78125,-5.9852696e-05 20.75,-5.9852696e-05 20.71875,-5.9852696e-05 Z M22.96875,9.96875 C24.074219,9.96875 24.96875,10.863281 24.96875,11.96875 C24.96875,13.074219 24.074219,13.96875 22.96875,13.96875 C21.863281,13.96875 20.96875,13.074219 20.96875,11.96875 C20.96875,10.863281 21.863281,9.96875 22.96875,9.96875 Z M30.0625,13.875 C31.167969,13.875 32.0625,14.769531 32.0625,15.875 C32.0625,16.980469 31.167969,17.875 30.0625,17.875 C28.957031,17.875 28.0625,16.980469 28.0625,15.875 C28.0625,14.769531 28.960938,13.875 30.0625,13.875 Z M15.90625,13.90625 C17.011719,13.90625 17.90625,14.800781 17.90625,15.90625 C17.90625,17.011719 17.011719,17.90625 15.90625,17.90625 C14.800781,17.90625 13.90625,17.011719 13.90625,15.90625 C13.90625,14.800781 14.800781,13.90625 15.90625,13.90625 Z M11.96875,20.96875 C13.074219,20.96875 13.96875,21.863281 13.96875,22.96875 C13.96875,24.074219 13.074219,24.96875 11.96875,24.96875 C10.863281,24.96875 9.96875,24.074219 9.96875,22.96875 C9.96875,21.863281 10.863281,20.96875 11.96875,20.96875 Z M22.96875,20.96875 C24.074219,20.96875 24.96875,21.863281 24.96875,22.96875 C24.96875,24.074219 24.074219,24.96875 22.96875,24.96875 C21.863281,24.96875 20.96875,24.074219 20.96875,22.96875 C20.96875,21.863281 21.863281,20.96875 22.96875,20.96875 Z M34,21 C35.105469,21 36,21.894531 36,23 C36,24.105469 35.105469,25 34,25 C32.894531,25 32,24.105469 32,23 C32,21.894531 32.894531,21 34,21 Z M15.875,28.0625 C16.980469,28.0625 17.875,28.957031 17.875,30.0625 C17.875,31.167969 16.980469,32.0625 15.875,32.0625 C14.769531,32.0625 13.875,31.167969 13.875,30.0625 C13.875,28.957031 14.769531,28.0625 15.875,28.0625 Z M30.0625,28.0625 C31.167969,28.0625 32.0625,28.957031 32.0625,30.0625 C32.0625,31.167969 31.167969,32.0625 30.0625,32.0625 C28.957031,32.0625 28.0625,31.167969 28.0625,30.0625 C28.0625,28.957031 28.957031,28.0625 30.0625,28.0625 Z M22.96875,31.96875 C24.074219,31.96875 24.96875,32.863281 24.96875,33.96875 C24.96875,35.074219 24.074219,35.96875 22.96875,35.96875 C21.863281,35.96875 20.96875,35.074219 20.96875,33.96875 C20.96875,32.863281 21.863281,31.96875 22.96875,31.96875 Z"/>
</svg>
