<svg xmlns="http://www.w3.org/2000/svg" width="514" height="449" viewBox="0 0 514 449">
  <path fill="#FFF" d="M321.2,212.8 L271.5,312.2 C265.5,324.3 248.1,323.9 242.6,311.6 L185.7,185.3 L155.7,257 L61.6,257 L244.1,443.5 C251.2,450.8 262.7,450.8 269.8,443.5 L452.4,257 L343.3,257 L321.2,212.8 Z M474.7,42.9 L472.3,40.4 C420.8,-12.2 336.5,-12.2 284.9,40.4 L257,69 L229.1,40.5 C177.6,-12.2 93.2,-12.2 41.7,40.5 L39.3,42.9 C-9.4,92.7 -11.5,172 32,225 L134.4,225 L170.3,138.8 C175.7,125.9 193.9,125.6 199.7,138.4 L257.9,267.7 L306.9,169.8 C312.8,158 329.6,158 335.5,169.8 L363.1,225 L482,225 C525.5,172 523.4,92.7 474.7,42.9 L474.7,42.9 Z"/>
</svg>
