<svg xmlns="http://www.w3.org/2000/svg" width="576" height="512" viewBox="0 0 576 512">
  <path fill="#FFF" d="M569.517,440.013 C587.975,472.007 564.806,511.999995 527.94,511.999995 L48.054,511.999995 C11.117,511.999995 -11.945,471.945 6.477,440.013 L246.423,23.985 C264.89,-8.024 311.143,-7.966 329.577,23.985 L569.517,440.013 Z M288,354 C262.595,354 242,374.595 242,400 C242,425.405 262.595,446 288,446 C313.405,446 334,425.405 334,400 C334,374.595 313.405,354 288,354 Z M244.327,188.654 L251.745,324.654 C252.092,331.018 257.354,336 263.727,336 L312.273,336 C318.646,336 323.908,331.018 324.255,324.654 L331.673,188.654 C332.048,181.78 326.575,176 319.691,176 L256.308,176 C249.424,176 243.952,181.78 244.327,188.654 L244.327,188.654 Z"/>
</svg>
